REM DIRINDEX 1\4,1\2\5,1\2\6,1\2\7,1\3\8,1\3\9,1\3\10,1\3\11
REM DIRNAME folder01,folder02,folder03,folder04,folder05,folder06,folder07,folder08,folder09,folder10,folder11
TITLE ""
FILE "t_j_26.mp3" MP3
  TRACK 01 AUDIO
    TITLE "8:cjc108_2293"
    INDEX 01 00:00:00
  TRACK 02 AUDIO
    TITLE "0:"
    INDEX 01 00:02:67
  TRACK 03 AUDIO
    TITLE "9:cjc108_2294"
    INDEX 01 00:04:05
  TRACK 04 AUDIO
    TITLE "0:"
    INDEX 01 00:05:50
  TRACK 05 AUDIO
    TITLE "10:cjc108_2295"
    INDEX 01 00:05:56
  TRACK 06 AUDIO
    TITLE "0:"
    INDEX 01 00:07:68
  TRACK 07 AUDIO
    TITLE "9:cjc108_2296"
    INDEX 01 00:08:42
  TRACK 08 AUDIO
    TITLE "0:"
    INDEX 01 00:09:51
  TRACK 09 AUDIO
    TITLE "10:cjc108_2297"
    INDEX 01 00:09:59
  TRACK 10 AUDIO
    TITLE "0:"
    INDEX 01 00:12:26
  TRACK 11 AUDIO
    TITLE "9:cjc108_2298"
    INDEX 01 00:12:73
  TRACK 12 AUDIO
    TITLE "0:"
    INDEX 01 00:14:13
  TRACK 13 AUDIO
    TITLE "10:cjc108_2299"
    INDEX 01 00:14:23
  TRACK 14 AUDIO
    TITLE "0:"
    INDEX 01 00:16:59
  TRACK 15 AUDIO
    TITLE "9:cjc108_2300"
    INDEX 01 00:17:29
  TRACK 16 AUDIO
    TITLE "0:"
    INDEX 01 00:18:58
  TRACK 17 AUDIO
    TITLE "10:cjc108_2301"
    INDEX 01 00:18:60
  TRACK 18 AUDIO
    TITLE "0:"
    INDEX 01 00:20:34
  TRACK 19 AUDIO
    TITLE "9:cjc108_2302"
    INDEX 01 00:21:06
  TRACK 20 AUDIO
    TITLE "0:"
    INDEX 01 00:22:54
  TRACK 21 AUDIO
    TITLE "10:cjc108_2303"
    INDEX 01 00:22:74
  TRACK 22 AUDIO
    TITLE "0:"
    INDEX 01 00:26:32
  TRACK 23 AUDIO
    TITLE "11:cjc108_2304"
    INDEX 01 00:27:08
  TRACK 24 AUDIO
    TITLE "0:"
    INDEX 01 00:38:04
  TRACK 25 AUDIO
    TITLE "9:cjc108_2305"
    INDEX 01 00:39:52
  TRACK 26 AUDIO
    TITLE "0:"
    INDEX 01 00:40:66
  TRACK 27 AUDIO
    TITLE "10:cjc108_2306"
    INDEX 01 00:41:08
  TRACK 28 AUDIO
    TITLE "0:"
    INDEX 01 00:42:63
  TRACK 29 AUDIO
    TITLE "9:cjc108_2307"
    INDEX 01 00:43:39
  TRACK 30 AUDIO
    TITLE "0:"
    INDEX 01 00:44:36
  TRACK 31 AUDIO
    TITLE "10:cjc108_2308"
    INDEX 01 00:44:60
  TRACK 32 AUDIO
    TITLE "0:"
    INDEX 01 00:46:47
  TRACK 33 AUDIO
    TITLE "9:cjc108_2309"
    INDEX 01 00:47:30
  TRACK 34 AUDIO
    TITLE "0:"
    INDEX 01 00:48:57
  TRACK 35 AUDIO
    TITLE "10:cjc108_2310"
    INDEX 01 00:48:71
  TRACK 36 AUDIO
    TITLE "0:"
    INDEX 01 00:50:56
  TRACK 37 AUDIO
    TITLE "9:cjc108_2311"
    INDEX 01 00:51:32
  TRACK 38 AUDIO
    TITLE "0:"
    INDEX 01 00:52:37
  TRACK 39 AUDIO
    TITLE "10:cjc108_2312"
    INDEX 01 00:52:43
  TRACK 40 AUDIO
    TITLE "0:"
    INDEX 01 00:55:34
  TRACK 41 AUDIO
    TITLE "11:cjc108_2313"
    INDEX 01 00:56:04
  TRACK 42 AUDIO
    TITLE "0:"
    INDEX 01 01:04:25
  TRACK 43 AUDIO
    TITLE "9:cjc108_2314"
    INDEX 01 01:06:00
  TRACK 44 AUDIO
    TITLE "0:"
    INDEX 01 01:07:12
  TRACK 45 AUDIO
    TITLE "10:cjc108_2315"
    INDEX 01 01:07:19
  TRACK 46 AUDIO
    TITLE "0:"
    INDEX 01 01:09:38
  TRACK 47 AUDIO
    TITLE "9:cjc108_2316"
    INDEX 01 01:10:10
  TRACK 48 AUDIO
    TITLE "0:"
    INDEX 01 01:11:19
  TRACK 49 AUDIO
    TITLE "10:cjc108_2317"
    INDEX 01 01:11:39
  TRACK 50 AUDIO
    TITLE "0:"
    INDEX 01 01:14:04
  TRACK 51 AUDIO
    TITLE "9:cjc108_2318"
    INDEX 01 01:14:53
  TRACK 52 AUDIO
    TITLE "0:"
    INDEX 01 01:16:01
  TRACK 53 AUDIO
    TITLE "10:cjc108_2319"
    INDEX 01 01:16:11
  TRACK 54 AUDIO
    TITLE "0:"
    INDEX 01 01:18:07
  TRACK 55 AUDIO
    TITLE "11:cjc108_2320"
    INDEX 01 01:18:53
  TRACK 56 AUDIO
    TITLE "0:"
    INDEX 01 01:23:46
  TRACK 57 AUDIO
    TITLE "9:cjc108_2321"
    INDEX 01 01:25:23
  TRACK 58 AUDIO
    TITLE "0:"
    INDEX 01 01:26:64
  TRACK 59 AUDIO
    TITLE "10:cjc108_2322"
    INDEX 01 01:26:74
  TRACK 60 AUDIO
    TITLE "0:"
    INDEX 01 01:29:64
  TRACK 61 AUDIO
    TITLE "9:cjc108_2323"
    INDEX 01 01:30:40
  TRACK 62 AUDIO
    TITLE "0:"
    INDEX 01 01:31:69
  TRACK 63 AUDIO
    TITLE "10:cjc108_2324"
    INDEX 01 01:32:06
  TRACK 64 AUDIO
    TITLE "0:"
    INDEX 01 01:33:44
  TRACK 65 AUDIO
    TITLE "11:cjc108_2325"
    INDEX 01 01:34:18
  TRACK 66 AUDIO
    TITLE "0:"
    INDEX 01 01:43:47
